<svg xmlns="http://www.w3.org/2000/svg" viewBox="0 0 228.76 228.76"><defs><style>.cls-1{fill:#00a19a;}.cls-2{fill:#fff;}.cls-3{fill:#b0dde9;opacity:0.5;}</style></defs><g id="Layer_2" data-name="Layer 2"><g id="Layer_1-2" data-name="Layer 1"><circle class="cls-1" cx="114.38" cy="114.38" r="114.38"/><path class="cls-2" d="M196,157.89a1.9,1.9,0,0,0-.56,1.46,6.66,6.66,0,0,1,2.22-1.21l.39,0c.18-.25.21-.36.27-.32.25,0,.9-.53,1.73-.5a6.47,6.47,0,0,0-.53-3.84,1.45,1.45,0,0,0-.37-.37,5.27,5.27,0,0,1-.33,1.18A9.51,9.51,0,0,1,196,157.89Zm3.3-2.1a1.92,1.92,0,0,1-1,1.23c-.44.17-.5-.16-.18-1,.3-.7.64-1.07,1-1.1S199.49,155.14,199.3,155.79Z"/><path class="cls-2" d="M196.78,152a2.16,2.16,0,0,1,.95-.83c.51-.18.8.14.9.95a5.43,5.43,0,0,1,0,.7,1.79,1.79,0,0,1,.51.22,2.84,2.84,0,0,0-.24-1.8,1.43,1.43,0,0,0-1.51-.8,7,7,0,0,1-.58,1.49A.25.25,0,0,0,196.78,152Z"/><path class="cls-2" d="M192.12,160.58c-.82-.64-1-1.26-.65-1.88a31,31,0,0,1,2.91-3.32c.54-.55,1-1,1.45-1.38a6.23,6.23,0,0,1,.44-1.13,5.44,5.44,0,0,1-.61.78,19,19,0,0,1-3,2.26l-.27.17h0a10.28,10.28,0,0,1-2.88,1.59,2.35,2.35,0,0,1-1-.06,3.52,3.52,0,0,0,.88,1.9,11.13,11.13,0,0,0,4.75,2.77c0-.07,0-.14,0-.2A18.87,18.87,0,0,1,192.12,160.58Z"/><path class="cls-2" d="M197,156.15c-.55.62-1,.55-1.26-.24a3.07,3.07,0,0,1,.06-1.91c-.43.37-.91.83-1.45,1.38a31,31,0,0,0-2.91,3.32c-.38.62-.17,1.24.65,1.88a18.87,18.87,0,0,0,2.06,1.5,4,4,0,0,1,1.26-2.73,1.9,1.9,0,0,1,.56-1.46,9.51,9.51,0,0,0,2.82-3.65,5.27,5.27,0,0,0,.33-1.18,1.79,1.79,0,0,0-.51-.22A5.86,5.86,0,0,1,197,156.15Z"/><path class="cls-2" d="M197.28,152.24c.31-.42.57-.5.8-.22a.77.77,0,0,1,0,.75,2.84,2.84,0,0,1,.52.07,5.43,5.43,0,0,0,0-.7c-.1-.81-.39-1.13-.9-.95a2.16,2.16,0,0,0-.95.83,9.08,9.08,0,0,1-.51.85,6.23,6.23,0,0,0-.44,1.13,9.58,9.58,0,0,1,1.07-.83A1.45,1.45,0,0,1,197.28,152.24Z"/><path class="cls-2" d="M195.77,155.91c.29.79.71.86,1.26.24a5.86,5.86,0,0,0,1.61-3.31,2.84,2.84,0,0,0-.52-.07,2.34,2.34,0,0,1-.2.43c-.33.57-.62.69-.87.39a.6.6,0,0,1-.15-.42,9.58,9.58,0,0,0-1.07.83A3.07,3.07,0,0,0,195.77,155.91Z"/><path class="cls-2" d="M198.08,156c-.32.85-.26,1.18.18,1a1.92,1.92,0,0,0,1-1.23c.19-.65.11-.94-.22-.88S198.38,155.31,198.08,156Z"/><path class="cls-2" d="M198.08,152c-.23-.28-.49-.2-.8.22a1.45,1.45,0,0,0-.38.93,2.35,2.35,0,0,1,.85-.39h.37A.77.77,0,0,0,198.08,152Z"/><path class="cls-2" d="M196.9,153.17a.6.6,0,0,0,.15.42c.25.3.54.18.87-.39a2.34,2.34,0,0,0,.2-.43h-.37A2.35,2.35,0,0,0,196.9,153.17Z"/><path class="cls-2" d="M189.2,135c.66.16,1.3.91,1.9,2.27.26.64.07.87-.58.68a6.38,6.38,0,0,1-1.94-1l-.38-.26c-.48.33-1.13.75-2,1.24a10.68,10.68,0,0,1-3.39,1.54c-1.36,1.38-2.27,2.26-2.71,2.62l-1.27,2.49c-.71,1.75-.68,2.94.08,3.57.48.42,1.69,1.37,3.61,2.86a44.86,44.86,0,0,1,3.6,2.94,8.5,8.5,0,0,0,3.17,2.07,10.47,10.47,0,0,1,.71-.83c-.13-.06-.27-.1-.42-.18-1-.52-1.21-1.08-.52-1.68.44-.4,1.2-.32,2.27.23l.27.15c.26-.21.5-.42.78-.63a15.73,15.73,0,0,1,4.17-2.4,3.12,3.12,0,0,1,.81-.19,7,7,0,0,0,.26-2.09q-.21-3.69-3.64-9.71c-1.74-3.07-3.53-5.08-5.39-6,0,0,0,.09.05.13A10.89,10.89,0,0,1,189.2,135Zm-2.72,17.2a2.31,2.31,0,0,1-1.31-1q-.73-1.29.36-1.14a2,2,0,0,1,1.57,1.37C187.36,152.13,187.16,152.37,186.48,152.15Zm6.26-4.19c0,.12,0,.22-.06.31a1.37,1.37,0,0,1,.2.83c-.11.9-.65,1.11-1.64.65s-1.34-.93-1.32-1.63a1.22,1.22,0,0,1,.06-.3,1.32,1.32,0,0,1-.24-.79c0-.7.37-1,1-.81C192.16,146.51,192.81,147.09,192.74,148Z"/><path class="cls-2" d="M192.42,153.05c-.28.21-.52.42-.78.63.8.46,1,.92.42,1.35a1.87,1.87,0,0,1-2,.13,10.47,10.47,0,0,0-.71.83,5.21,5.21,0,0,0,3.1.09l.27-.17a19,19,0,0,0,3-2.26,5.44,5.44,0,0,0,.61-.78v0a5.89,5.89,0,0,1,.5-.82.25.25,0,0,1,0-.07,7,7,0,0,0,.58-1.49,3.12,3.12,0,0,0-.81.19A15.73,15.73,0,0,0,192.42,153.05Z"/><path class="cls-2" d="M196.28,152.84v0a9.08,9.08,0,0,0,.51-.85A5.89,5.89,0,0,0,196.28,152.84Z"/><path class="cls-2" d="M178.11,138.13h0c-.15.25-.31.51-.46.78h0C177.8,138.64,178,138.38,178.11,138.13Z"/><path class="cls-2" d="M187.25,157.06a5.6,5.6,0,0,0,1.28.55v0A4.91,4.91,0,0,1,187.25,157.06Z"/><path class="cls-2" d="M189.57,157.67a10.28,10.28,0,0,0,2.88-1.59h0a11.27,11.27,0,0,1-2.82,1.54,2.22,2.22,0,0,1-1.08,0v0A2.35,2.35,0,0,0,189.57,157.67Z"/><path class="cls-2" d="M188.76,156.79a9.21,9.21,0,0,1,.57-.8,8.5,8.5,0,0,1-3.17-2.07,44.86,44.86,0,0,0-3.6-2.94c-1.92-1.49-3.13-2.44-3.61-2.86-.76-.63-.79-1.82-.08-3.57l1.27-2.49c.44-.36,1.35-1.24,2.71-2.62a15.4,15.4,0,0,1-2.33.5,15.11,15.11,0,0,1-1.51.13,1.39,1.39,0,0,1,.06.19,5.18,5.18,0,0,1,0,2.44,7,7,0,0,1-1.32,2.62,7.72,7.72,0,0,1-2.88,2.22,4.73,4.73,0,0,0,1.37,1.71c.48.35,1.71,1.14,3.69,2.35a36.68,36.68,0,0,1,5,3.6,14.19,14.19,0,0,0,2.33,1.86,4.91,4.91,0,0,0,1.28.53A1.75,1.75,0,0,1,188.76,156.79Z"/><path class="cls-2" d="M178.11,138.13c-.15.25-.31.51-.46.78a1.59,1.59,0,0,1,.27,0,1,1,0,0,1,.53.22C178.53,138.89,178.42,138.56,178.11,138.13Z"/><path class="cls-2" d="M189.33,156a9.21,9.21,0,0,0-.57.8,1.75,1.75,0,0,0-.23.8,2.22,2.22,0,0,0,1.08,0,11.27,11.27,0,0,0,2.82-1.54A5.21,5.21,0,0,1,189.33,156Z"/><path class="cls-2" d="M178.71,134a.79.79,0,0,1,.51-1.08c.54-.15,1,.19,1.49,1l.24.47a10.93,10.93,0,0,1,1.5-1.24l.09-.06a2.84,2.84,0,0,1-3.28-2.43,1.19,1.19,0,0,1,0-.44c0-.05,0-.1,0-.15-.18-.67.08-1,.78-1.06s4.54,1.85,4.69,2.81a.36.36,0,0,1-.08.31l.13,0a5.38,5.38,0,0,1,3.94.46q-2.43-7.4-3.83-9.52Q181,117.64,172,114.85a12.45,12.45,0,0,0-9.19.59,7.13,7.13,0,0,0-2.42,1.64c-.56.56-.63.89-.22,1,1.07.15,1.83.26,2.27.34a1.78,1.78,0,0,1,1.55,1.12A4.13,4.13,0,0,0,167.7,123a2,2,0,0,1,1.29.52,3.54,3.54,0,0,1,.78,1.34,3.13,3.13,0,0,0,1.32,1.58,8,8,0,0,1,2.2,1.46,2.83,2.83,0,0,1,.5,2.09,2.24,2.24,0,0,0,.91,2.07c.92.63,1.6,1.91,2,3.83a6,6,0,0,0,1.2,2,2.79,2.79,0,0,1,.17.25c.38-.6.75-1.17,1.13-1.68C179.07,135.48,178.89,134.67,178.71,134Zm-3.44-10.37a1.57,1.57,0,0,1-.11-.49s0,0,0,0c-.24-.67,0-.93.58-.77s6.63.82,6.95,1.42-3.12.39-4.89.43c.17.35-.07.59-.73.7C188.37,122.34,176.88,127.66,175.27,123.66Z"/><path class="cls-2" d="M181.84,132.11a.94.94,0,0,1-.79.52c1.44-.16,2,0,2.09.15a6,6,0,0,1,.85-.4A13.57,13.57,0,0,1,181.84,132.11Z"/><path class="cls-2" d="M184.69,132.16a5,5,0,0,1,1.43-.13,4,4,0,0,1,.08,2.73,8.1,8.1,0,0,1-2.11,3.43l-1.24,1.25a10.68,10.68,0,0,0,3.39-1.54c.83-.49,1.48-.91,2-1.24a2.06,2.06,0,0,1-.51-.45c-.18-.28-.07-.59.32-.93a1.4,1.4,0,0,1,1.19-.33,10.89,10.89,0,0,0-.52-2.2s0-.08-.05-.13A5.38,5.38,0,0,0,184.69,132.16Z"/><path class="cls-2" d="M183.14,132.78h0a6.94,6.94,0,0,1,.88-.41h0A6,6,0,0,0,183.14,132.78Z"/><path class="cls-2" d="M182.45,133.21a10.93,10.93,0,0,0-1.5,1.24h0A10.93,10.93,0,0,1,182.45,133.21Z"/><path class="cls-2" d="M184.69,132.16l-.13,0h0Z"/><path class="cls-2" d="M179.24,136.45h0c-.38.51-.75,1.08-1.13,1.68h0C178.49,137.53,178.86,137,179.24,136.45Z"/><path class="cls-2" d="M186.2,134.76a4,4,0,0,0-.08-2.73,5,5,0,0,0-1.43.13l-.14,0a.83.83,0,0,1-.53.18,6.94,6.94,0,0,0-.88.41c0,.13-.21.29-.6.36h0l-.09.06a10.93,10.93,0,0,0-1.5,1.24,8,8,0,0,1,.75,1.76c.08.58-.25,1-1,1.28s-1.13,0-1.4-.74c0-.1,0-.2,0-.3-.38.51-.75,1.08-1.13,1.68.31.43.42.76.34,1a1.84,1.84,0,0,1,.56,1,15.11,15.11,0,0,0,1.51-.13,15.4,15.4,0,0,0,2.33-.5l1.24-1.25A8.1,8.1,0,0,0,186.2,134.76Zm-3.51,2.94a1,1,0,0,1,.55-1.37c.67-.27,1.11-.19,1.34.23s0,.88-.6,1.4S182.87,138.37,182.69,137.7Z"/><path class="cls-2" d="M176.4,141.21c.24-.47.49-1,.78-1.47.15-.29.31-.56.47-.83-.31,0-.82.08-1.57.17s-1.11-.06-1.31-.37a2.41,2.41,0,0,0-2.12-1.07,3.89,3.89,0,0,1-2.7-1.06,1.32,1.32,0,0,0-1-.37,7,7,0,0,1-1,.1,5,5,0,0,1-2.74-1.35,1.87,1.87,0,0,0-1-.33,8.76,8.76,0,0,1-1.38-.19,4,4,0,0,1-1.36-.66,3.43,3.43,0,0,0-1.18-.74,2.49,2.49,0,0,0-1.43.1,2,2,0,0,1-1.26.09,1.46,1.46,0,0,1-.8-.53,4.33,4.33,0,0,0-.68-.67c-.68-.55-1.09-.87-1.23-.95-.57-.22-.84.09-.83.93s.7,2.46,2.07,4.69a18.81,18.81,0,0,0,4.85,5.66,35.82,35.82,0,0,0,6.9,3.74q5.15,2.22,6.86,1.48l.08,0a2.52,2.52,0,0,1-.22-1.34A16.78,16.78,0,0,1,176.4,141.21Zm-5.75-2.53a8,8,0,0,0-2.06-.36c-1.27-.12-2-.21-2.24-.27a4.88,4.88,0,0,1-1.81-.94,3.17,3.17,0,0,0-1.78-.74,6.35,6.35,0,0,1-2.32-.77,6.84,6.84,0,0,0-2.53-.81,3.1,3.1,0,0,1-2-.7c-.62-.44-.89-.76-.81-1s.46-.25,1,.11a7.17,7.17,0,0,0,2.07.78,3.81,3.81,0,0,1,1.39.53,8,8,0,0,0,1.52.65,8.37,8.37,0,0,0,1.64.11,2.3,2.3,0,0,1,1.44.66,5.87,5.87,0,0,0,3.63,1.3,6.18,6.18,0,0,1,2.28.9C171.15,138.73,171.32,138.89,170.65,138.68Z"/><path class="cls-2" d="M177.65,138.91h0c-.16.27-.32.54-.47.83C177.33,139.45,177.49,139.18,177.65,138.91Z"/><path class="cls-2" d="M176.4,141.21a16.78,16.78,0,0,0-1.8,5A16.78,16.78,0,0,1,176.4,141.21Z"/><path class="cls-2" d="M177.7,145.32A7,7,0,0,0,179,142.7a5.18,5.18,0,0,0,0-2.44,1.39,1.39,0,0,0-.06-.19c-1.1,0-1.33-.24-.66-.79a.59.59,0,0,0,.1-.17,1,1,0,0,0-.53-.22,1.59,1.59,0,0,0-.27,0c-.16.27-.32.54-.47.83-.29.51-.54,1-.78,1.47a16.78,16.78,0,0,0-1.8,5,2.52,2.52,0,0,0,.22,1.34A7.72,7.72,0,0,0,177.7,145.32Z"/><path class="cls-2" d="M178.35,139.28c-.67.55-.44.81.66.79a1.84,1.84,0,0,0-.56-1A.59.59,0,0,1,178.35,139.28Z"/><path class="cls-2" d="M190.52,137.9c.65.19.84,0,.58-.68-.6-1.36-1.24-2.11-1.9-2.27a1.62,1.62,0,0,1-.12,1,4,4,0,0,1-.88.75l.38.26A6.38,6.38,0,0,0,190.52,137.9Z"/><path class="cls-2" d="M189.08,135.91a1.62,1.62,0,0,0,.12-1,1.4,1.4,0,0,0-1.19.33c-.39.34-.5.65-.32.93a2.06,2.06,0,0,0,.51.45A4,4,0,0,0,189.08,135.91Z"/><path class="cls-2" d="M191.37,153.53c-1.07-.55-1.83-.63-2.27-.23-.69.6-.52,1.16.52,1.68.15.08.29.12.42.18a18,18,0,0,1,1.6-1.48Z"/><path class="cls-2" d="M192.06,155c.53-.43.38-.89-.42-1.35a18,18,0,0,0-1.6,1.48A1.87,1.87,0,0,0,192.06,155Z"/><path class="cls-2" d="M185.53,150.06q-1.09-.15-.36,1.14a2.31,2.31,0,0,0,1.31,1c.68.22.88,0,.62-.72A2,2,0,0,0,185.53,150.06Z"/><path class="cls-2" d="M177.05,124.9c.66-.11.9-.35.73-.7a5.72,5.72,0,0,0-.95.07c-.79.2-1.34-.17-1.67-1.1a1.57,1.57,0,0,0,.11.49C176.88,127.66,188.37,122.34,177.05,124.9Z"/><path class="cls-2" d="M175.81,122.86a3.57,3.57,0,0,1,1.69,1,1.87,1.87,0,0,1,.28.36c1.77,0,5.16.07,4.89-.43s-6.39-1.31-6.95-1.42-.82.1-.58.77c0,0,0,0,0,0C175.16,122.85,175.37,122.74,175.81,122.86Z"/><path class="cls-2" d="M176.83,124.27a5.72,5.72,0,0,1,.95-.07,1.87,1.87,0,0,0-.28-.36,3.57,3.57,0,0,0-1.69-1c-.44-.12-.65,0-.65.31C175.49,124.1,176,124.47,176.83,124.27Z"/><path class="cls-2" d="M180.71,134c-.45-.84-1-1.18-1.49-1a.79.79,0,0,0-.51,1.08c.18.64.36,1.45.53,2.42a16.77,16.77,0,0,1,1.71-2Z"/><path class="cls-2" d="M181,134.45a16.77,16.77,0,0,0-1.71,2h0a16.77,16.77,0,0,1,1.71-2Z"/><path class="cls-2" d="M180.69,137.49c.76-.27,1.09-.7,1-1.28a8,8,0,0,0-.75-1.76,16.77,16.77,0,0,0-1.71,2c0,.1,0,.2,0,.3C179.56,137.51,180,137.75,180.69,137.49Z"/><path class="cls-2" d="M184.58,136.56c-.23-.42-.67-.5-1.34-.23a1,1,0,0,0-.55,1.37c.18.67.61.75,1.29.26S184.8,137,184.58,136.56Z"/><path class="cls-2" d="M182.54,133.15l.23-.16c.12-.08.24-.14.37-.21-.07-.17-.65-.31-2.09-.15a.94.94,0,0,0,.79-.52A3.85,3.85,0,0,0,181,132c-.83.09-1.41-.5-1.74-1.76a1.19,1.19,0,0,0,0,.44,2.84,2.84,0,0,0,3.28,2.43Z"/><polygon class="cls-2" points="182.54 133.15 182.54 133.15 182.54 133.15 182.54 133.15"/><path class="cls-2" d="M182.77,133c.12-.08.25-.13.37-.2h0C183,132.85,182.89,132.91,182.77,133Z"/><path class="cls-2" d="M182.54,133.15h0c.39-.07.64-.23.6-.36-.12.07-.25.12-.37.2Z"/><path class="cls-2" d="M180,129.66c.7,0,1.24.38,1.62,1.24a1.66,1.66,0,0,1,.18,1.21,13.57,13.57,0,0,0,2.15.27c.19-.07.38-.14.57-.19a.36.36,0,0,0,.08-.31c-.15-1-4-2.82-4.69-2.81s-1,.39-.78,1.06c0,.05,0,.1,0,.15C179.24,129.89,179.52,129.69,180,129.66Z"/><path class="cls-2" d="M184,132.38a5.52,5.52,0,0,1,.53-.18h0c-.19.05-.38.12-.57.19Z"/><path class="cls-2" d="M184.55,132.2a5.52,5.52,0,0,0-.53.18A.83.83,0,0,0,184.55,132.2Z"/><path class="cls-2" d="M181,132a3.85,3.85,0,0,1,.89.07,1.66,1.66,0,0,0-.18-1.21c-.38-.86-.92-1.28-1.62-1.24-.52,0-.8.23-.83.62C179.54,131.54,180.12,132.13,181,132Z"/><path class="cls-2" d="M191.06,148.66a2.35,2.35,0,0,1-1.08-.84,1.22,1.22,0,0,0-.06.3c0,.7.42,1.24,1.32,1.63s1.53.25,1.64-.65a1.37,1.37,0,0,0-.2-.83Q192.4,149.23,191.06,148.66Z"/><path class="cls-2" d="M189.74,147a1.32,1.32,0,0,0,.24.79c.1-.46.43-.64,1-.51a2.73,2.73,0,0,1,1.72,1c0-.09,0-.19.06-.31.07-.87-.58-1.45-2-1.74C190.11,146.06,189.76,146.33,189.74,147Z"/><path class="cls-2" d="M191,147.31c-.55-.13-.88.05-1,.51a2.35,2.35,0,0,0,1.08.84q1.33.57,1.62-.39A2.73,2.73,0,0,0,191,147.31Z"/><path class="cls-2" d="M170.14,138.18a6.18,6.18,0,0,0-2.28-.9,5.87,5.87,0,0,1-3.63-1.3,2.3,2.3,0,0,0-1.44-.66,8.37,8.37,0,0,1-1.64-.11,8,8,0,0,1-1.52-.65,3.81,3.81,0,0,0-1.39-.53,7.17,7.17,0,0,1-2.07-.78c-.59-.36-.94-.39-1-.11s.19.51.81,1a3.1,3.1,0,0,0,2,.7,6.84,6.84,0,0,1,2.53.81,6.35,6.35,0,0,0,2.32.77,3.17,3.17,0,0,1,1.78.74,4.88,4.88,0,0,0,1.81.94c.23.06,1,.15,2.24.27a8,8,0,0,1,2.06.36C171.32,138.89,171.15,138.73,170.14,138.18Z"/><path class="cls-2" d="M194.16,162.28v.08a.25.25,0,0,1,0-.08Z"/><path class="cls-2" d="M204.62,162.6a22.19,22.19,0,0,1-2.1,4.11c-.43.8-.26,2.73.49,5.81a53.71,53.71,0,0,1,1.24,6.32,33.46,33.46,0,0,1-.78,7.26q1.71-2.13,3.33-4.34c0-.24,0-.48.06-.74q.28-4.14-2.34-14.65,4.89,5.25,3.87,13.16c.4-.57.79-1.15,1.18-1.73a31.15,31.15,0,0,0-3.35-13Z"/><path class="cls-2" d="M198.05,158.09l-.39,0a6.66,6.66,0,0,0-2.22,1.21,7.36,7.36,0,0,0,.06.8A8.35,8.35,0,0,0,198.05,158.09Z"/><path class="cls-2" d="M194.19,162.08h0c0,.06,0,.13,0,.2h0A1.36,1.36,0,0,1,194.19,162.08Z"/><path class="cls-2" d="M195.5,160.15a7.36,7.36,0,0,1-.06-.8,4,4,0,0,0-1.26,2.73h0a4.12,4.12,0,0,1,.65-1.55Z"/><path class="cls-2" d="M199.87,157.83l1.24-.17a1.83,1.83,0,0,0-1.06-.39l0,.12C200,157.54,199.92,157.69,199.87,157.83Z"/><path class="cls-2" d="M201.45,180a35.81,35.81,0,0,1-1.68,10.44c.13-.14.26-.28.38-.43A41,41,0,0,0,201.45,180Z"/><path class="cls-2" d="M198.05,158.09l1.82-.26c0-.14.11-.29.15-.44l0-.12c-.83,0-1.48.54-1.73.5C198.26,157.73,198.23,157.84,198.05,158.09Z"/><path class="cls-2" d="M203.47,186.1a33.46,33.46,0,0,0,.78-7.26,53.71,53.71,0,0,0-1.24-6.32c-.75-3.08-.92-5-.49-5.81a22.19,22.19,0,0,0,2.1-4.11l-3.51-4.94-1.24.17c-.64,1.73-2.12,3.23-4.67,4.42h-.07l-.1,0a1.94,1.94,0,0,1-.86,0,.25.25,0,0,0,0,.08c0,.17,0,.34,0,.55l3.64,4.44A20.89,20.89,0,0,1,201.45,180a41,41,0,0,1-1.3,10C201.29,188.75,202.39,187.43,203.47,186.1Z"/><path class="cls-2" d="M195.5,160.15c.11.95.3,1.83-.37,2.11h.07c2.55-1.19,4-2.69,4.67-4.42l-1.82.26A8.35,8.35,0,0,1,195.5,160.15Z"/><path class="cls-2" d="M194.19,162.08a1.36,1.36,0,0,0,0,.2,1.94,1.94,0,0,0,.86,0l.1,0A1.29,1.29,0,0,1,194.19,162.08Z"/><path class="cls-2" d="M195.5,160.15l-.66.38a4.12,4.12,0,0,0-.65,1.55,1.29,1.29,0,0,0,.94.18C195.8,162,195.61,161.1,195.5,160.15Z"/><path class="cls-2" d="M204.52,166.37q2.63,10.5,2.34,14.65c0,.26,0,.5-.06.74.54-.74,1.07-1.48,1.59-2.23Q209.41,171.63,204.52,166.37Z"/><path class="cls-2" d="M105.63,202.92a8.37,8.37,0,0,0,1.49-1,7.68,7.68,0,0,0,1.93-1.93c.47-.82.56-1.4.26-1.76a.88.88,0,0,0-.17-.16,13.14,13.14,0,0,1-7.81,2.53,9.81,9.81,0,0,1-6.47-2,1.58,1.58,0,0,0-.63,1c-.12.7.44,1.38,1.66,2a21.28,21.28,0,0,0,2.81,1.31c.88.53,1.4,1.64,1.58,3.34.39,3.43.54,14.31.45,21.77,1.78.21,3.57.39,5.37.52l-.56-21.94Q105.29,203.54,105.63,202.92Z"/><path class="cls-2" d="M105.1,196.87c2.14.31,3.48.69,4,1.15a14.62,14.62,0,0,0,2.45-2.29,14,14,0,0,0,3.69-9.73,17.8,17.8,0,0,0-3.25-9.83,11.2,11.2,0,0,0-8.51-5.08A12,12,0,0,0,92.12,177,19.93,19.93,0,0,0,89,185.73a14.07,14.07,0,0,0,2.8,9.39,13.66,13.66,0,0,0,3.09,3.4,8.31,8.31,0,0,1,2.88-1.3A17,17,0,0,1,105.1,196.87Zm-10.81-5.13a9.85,9.85,0,0,1-2.92-7,11.33,11.33,0,0,1,2.32-7.18,8.45,8.45,0,0,1,6.35-3.88,9.17,9.17,0,0,1,8.84,4.05,12.61,12.61,0,0,1,2.49,6.34,10.55,10.55,0,0,1-2,7.09,8.29,8.29,0,0,1-7.21,4A10.41,10.41,0,0,1,94.29,191.74Z"/><path class="cls-2" d="M109.14,198c-.56-.46-1.9-.84-4-1.15a17,17,0,0,0-7.36.35,8.31,8.31,0,0,0-2.88,1.3,9.81,9.81,0,0,0,6.47,2A13.14,13.14,0,0,0,109.14,198Z"/><path class="cls-2" d="M100.26,177.75c.59-1.58-.06-2.4-1.93-2.46A4.56,4.56,0,0,0,95.44,177a6.12,6.12,0,0,0-2.11,3.86c0,1.28.41,1.93,1.41,1.93a5.15,5.15,0,0,0,2.89-1.49A9.83,9.83,0,0,0,100.26,177.75Z"/><path class="cls-2" d="M108.05,191a9,9,0,0,0,2.1-3.86l.36-1.4a13.08,13.08,0,0,1-2,3,10.17,10.17,0,0,1-6,3.6,11.94,11.94,0,0,1-5.53-.18l-1.31-.7,1.66,1.31a9,9,0,0,0,5.26,1.14A7.32,7.32,0,0,0,108.05,191Z"/><path class="cls-2" d="M134.9,205.2a4.8,4.8,0,0,1,1.4-3.42,13.24,13.24,0,0,1,2.63-1.31c1.17-.71,1.73-1.38,1.67-2a1.47,1.47,0,0,0-.6-.9,9.67,9.67,0,0,1-6.24,2.13,12.74,12.74,0,0,1-7.54-2.35,1.64,1.64,0,0,0-.27.24c-.23.35-.11.91.35,1.67a5.52,5.52,0,0,0,1.85,1.84,3.94,3.94,0,0,1,1.57,1.93,29.36,29.36,0,0,1,.27,6.05c-.09,3.34-.19,13.79-.28,18.67,1.66-.22,3.31-.47,4.95-.77C134.52,219.19,134.6,208.52,134.9,205.2Z"/><path class="cls-2" d="M137.18,196.34a8.07,8.07,0,0,1,2.82,1.21,12.49,12.49,0,0,0,2.79-3.22,15.81,15.81,0,0,0,2.46-9.56,17.68,17.68,0,0,0-3.16-8.6A11.49,11.49,0,0,0,131,170.74q-4.81.44-8,5.17a16.77,16.77,0,0,0-3,9.65,14.56,14.56,0,0,0,3.77,9.56,14.9,14.9,0,0,0,2.46,2.21,10.29,10.29,0,0,1,3.77-1.16A18.39,18.39,0,0,1,137.18,196.34ZM125,190.89a10.37,10.37,0,0,1-2.85-7,12.38,12.38,0,0,1,2.2-7.18,8.12,8.12,0,0,1,6.09-3.88,8.53,8.53,0,0,1,8.29,4,13,13,0,0,1,2.36,6.33,11,11,0,0,1-1.87,7.09,7.55,7.55,0,0,1-6.75,4A9.56,9.56,0,0,1,125,190.89Z"/><path class="cls-2" d="M140,197.55a8.07,8.07,0,0,0-2.82-1.21,18.39,18.39,0,0,0-7.19-.17,10.29,10.29,0,0,0-3.77,1.16,12.74,12.74,0,0,0,7.54,2.35A9.67,9.67,0,0,0,140,197.55Z"/><path class="cls-2" d="M128.88,180a9,9,0,0,0,2.63-3.51c.52-1.52-.15-2.31-2-2.37-.76,0-1.72.56-2.89,1.67a5.65,5.65,0,0,0-2,3.77c-.12,1.34.32,2,1.31,1.93A5.54,5.54,0,0,0,128.88,180Z"/><path class="cls-2" d="M138.22,189.59a9,9,0,0,0,2.1-3.86l.35-1.4a11.57,11.57,0,0,1-2.1,3,10.17,10.17,0,0,1-6,3.6,11.6,11.6,0,0,1-5.44-.18l-1.31-.7,1.57,1.32a9.58,9.58,0,0,0,5.27,1.22A7.7,7.7,0,0,0,138.22,189.59Z"/><path class="cls-2" d="M44.59,77.7l-1.73.37v2.15H49.7V78.07l-1.54-.37v-7a2.56,2.56,0,0,1,1-.88,2.91,2.91,0,0,1,1.32-.3,2,2,0,0,1,1.59.6,3,3,0,0,1,.54,2V77.7L51,78.07v2.15h6.85V78.07l-1.72-.37V72.15A6.12,6.12,0,0,0,55,68a4,4,0,0,0-3.18-1.33,4.26,4.26,0,0,0-3.65,1.94V61.08H42.67v2.16l1.92.36Z"/><path class="cls-2" d="M60,76.23a4.51,4.51,0,0,0,1,3.23,3.83,3.83,0,0,0,2.86,1,8,8,0,0,0,1.27-.11,9.15,9.15,0,0,0,1.19-.26L66,77.52l-.59.09a4.85,4.85,0,0,1-.64,0,1.2,1.2,0,0,1-.89-.34,1.52,1.52,0,0,1-.33-1.1V69.46H66V66.94H63.53V63.69H60v3.25H58.13v2.52H60Z"/><path class="cls-2" d="M74.11,80.37a9.15,9.15,0,0,0,1.19-.26L75,77.52l-.59.09a4.85,4.85,0,0,1-.64,0,1.2,1.2,0,0,1-.89-.34,1.52,1.52,0,0,1-.33-1.1V69.46H75V66.94H72.55V63.69H69v3.25H67.15v2.52H69v6.77a4.51,4.51,0,0,0,1,3.23,3.83,3.83,0,0,0,2.86,1A8,8,0,0,0,74.11,80.37Z"/><path class="cls-2" d="M78.59,82.8l-1.73.37v2.16h7V83.17l-1.73-.37V79a3.81,3.81,0,0,0,1.4,1.13,4.3,4.3,0,0,0,1.88.39,4.63,4.63,0,0,0,2.77-.82A5.07,5.07,0,0,0,90,77.38,8.83,8.83,0,0,0,90.57,74v-.26A10,10,0,0,0,90,70a5.55,5.55,0,0,0-1.75-2.45,4.39,4.39,0,0,0-2.75-.87,4,4,0,0,0-2,.46,4.3,4.3,0,0,0-1.43,1.33l-.17-1.55h-5.2V69.1l1.91.37Zm3.57-12a2.4,2.4,0,0,1,.89-1,2.54,2.54,0,0,1,1.3-.33,2.12,2.12,0,0,1,1.49.54,3,3,0,0,1,.86,1.47,7.57,7.57,0,0,1,.29,2.2V74a5.32,5.32,0,0,1-.62,2.76,2.17,2.17,0,0,1-2,1,2.79,2.79,0,0,1-1.32-.3,2.2,2.2,0,0,1-.89-.85Z"/><rect class="cls-2" x="93" y="71.2" width="6.92" height="2.76"/><path class="cls-2" d="M39.93,104.26a4.39,4.39,0,0,1-1.35,2.43,3.86,3.86,0,0,1-2.62.86,3.94,3.94,0,0,1-2.3-.72A4.91,4.91,0,0,1,32,104.59a10.4,10.4,0,0,1-.61-3.87v-.63a11.47,11.47,0,0,1,.55-3.8,5,5,0,0,1,1.66-2.41A4.47,4.47,0,0,1,36.43,93a4.22,4.22,0,0,1,1.59.32,4,4,0,0,1,1.29.82l.83,4.1H44.8l.05-6.58a13.18,13.18,0,0,0-9-3.2A10.42,10.42,0,0,0,30.24,90a10,10,0,0,0-3.71,4.1,13.24,13.24,0,0,0-1.31,6v.63a13.36,13.36,0,0,0,1.29,6,9.74,9.74,0,0,0,3.7,4.1,10.65,10.65,0,0,0,5.71,1.49,11.07,11.07,0,0,0,4.93-1,7,7,0,0,0,3-2.73,11.37,11.37,0,0,0,1.43-4.22l-.06-.13Z"/><path class="cls-2" d="M67.86,106.92c0-.3,0-.61,0-.92V96.55a7.2,7.2,0,0,0-2.61-6,11.08,11.08,0,0,0-7.1-2.09,16.27,16.27,0,0,0-4.69.64,18.89,18.89,0,0,0-3.9,1.65l.09,6h4.45l.49-3A5,5,0,0,1,56,93a6,6,0,0,1,1.78-.24,3.46,3.46,0,0,1,3.86,3.7v1.7h-3a15.22,15.22,0,0,0-5.67.93,7.75,7.75,0,0,0-3.47,2.57,6.28,6.28,0,0,0-1.18,3.79,6.38,6.38,0,0,0,2,5,7.71,7.71,0,0,0,5.42,1.84,7.07,7.07,0,0,0,3.51-.84,8.66,8.66,0,0,0,2.6-2.24,7.32,7.32,0,0,0,.34,1.36c.15.45.31.88.46,1.27h7.68v-3.71l-2.4-.34A6.15,6.15,0,0,1,67.86,106.92Zm-6.2-1.32a4.59,4.59,0,0,1-1.81,1.54,5.37,5.37,0,0,1-2.46.58,3.18,3.18,0,0,1-2.15-.67,2.38,2.38,0,0,1-.77-1.9,2.89,2.89,0,0,1,1.05-2.24A4.52,4.52,0,0,1,58.6,102h3.06Z"/><path class="cls-2" d="M87.33,104.26A4.45,4.45,0,0,1,86,106.69a3.86,3.86,0,0,1-2.62.86,3.92,3.92,0,0,1-2.3-.72,4.91,4.91,0,0,1-1.64-2.24,10.38,10.38,0,0,1-.62-3.87v-.63a11.45,11.45,0,0,1,.56-3.8A5,5,0,0,1,81,93.88,4.47,4.47,0,0,1,83.83,93a4.22,4.22,0,0,1,1.59.32,4,4,0,0,1,1.29.82l.83,4.1H92.2l0-6.58a13.08,13.08,0,0,0-3.63-2.23,13.28,13.28,0,0,0-5.33-1A10.42,10.42,0,0,0,77.64,90a10,10,0,0,0-3.71,4.1,13.11,13.11,0,0,0-1.31,6v.63a13.36,13.36,0,0,0,1.29,6,9.68,9.68,0,0,0,3.7,4.1,10.65,10.65,0,0,0,5.71,1.49,11.1,11.1,0,0,0,4.93-1,7,7,0,0,0,3-2.73,11.37,11.37,0,0,0,1.43-4.22l-.06-.13Z"/><path class="cls-2" d="M118.1,97.9q0-4.8-2-7.11a7,7,0,0,0-5.48-2.3,7.51,7.51,0,0,0-3.64.88,7.79,7.79,0,0,0-2.68,2.47V78.78H94.81v3.74l3.31.63v24.36l-3,.63v3.71H107v-3.71l-2.67-.63V95.34A4.41,4.41,0,0,1,106,93.82a5,5,0,0,1,2.28-.51,3.48,3.48,0,0,1,2.73,1,5.28,5.28,0,0,1,.94,3.52v9.65l-2.68.63v3.71h11.83v-3.71l-3-.63Z"/><path class="cls-2" d="M138.52,89.72a10.31,10.31,0,0,0-5.24-1.23A9.73,9.73,0,0,0,127.8,90a10,10,0,0,0-3.59,4.15,13.76,13.76,0,0,0-1.27,6V101a12.32,12.32,0,0,0,1.34,5.81,10,10,0,0,0,3.81,4,11.15,11.15,0,0,0,5.74,1.45,14.94,14.94,0,0,0,4.93-.75,12,12,0,0,0,3.57-1.9l-1.67-3.82a12,12,0,0,1-2.87,1.29,11.56,11.56,0,0,1-3.17.43,5.38,5.38,0,0,1-2.78-.67,4.61,4.61,0,0,1-1.77-1.84,6.79,6.79,0,0,1-.75-2.68l0-.13h13.48V98.86a13,13,0,0,0-1.1-5.6A8,8,0,0,0,138.52,89.72Zm-1.47,8.42H129.4l-.06-.11a9.18,9.18,0,0,1,.65-2.54,4.22,4.22,0,0,1,1.32-1.77,3.35,3.35,0,0,1,2.08-.65,3.78,3.78,0,0,1,2.11.55,3.11,3.11,0,0,1,1.18,1.56,6.9,6.9,0,0,1,.37,2.41Z"/><path class="cls-2" d="M35.7,167.06s0,0,.06.23a4.32,4.32,0,0,1,1.64,1,1.39,1.39,0,0,0-.38-1.26,7.4,7.4,0,0,1-2.23-2.89,4,4,0,0,1-.26-.93,1.64,1.64,0,0,0-.3.29,6.3,6.3,0,0,0-.69,3C34.55,166.37,35.73,166.78,35.7,167.06Zm-1.12-2.35c.29,0,.55.32.79.88s.21.93-.14.79a1.53,1.53,0,0,1-.82-1C34.26,164.9,34.32,164.67,34.58,164.71Z"/><path class="cls-2" d="M42.11,166.89a7.84,7.84,0,0,1-2.28-1.25h0l-.21-.14a14.81,14.81,0,0,1-2.34-1.79,3.6,3.6,0,0,1-.48-.61,7.39,7.39,0,0,1,.35.89c.34.3.72.66,1.14,1.1a23.08,23.08,0,0,1,2.3,2.62c.31.49.13,1-.51,1.49a10.16,10.16,0,0,1-1.73.92c0,.11,0,.22.06.33a9.86,9.86,0,0,0,3.89-2.24,2.41,2.41,0,0,0,.63-1.37A1.85,1.85,0,0,1,42.11,166.89Z"/><path class="cls-2" d="M34.94,162.52c.08-.64.31-.89.71-.75a1.59,1.59,0,0,1,.75.65l0,0a5.8,5.8,0,0,1-.46-1.17,1.12,1.12,0,0,0-1.19.62,2.27,2.27,0,0,0-.19,1.43,1.33,1.33,0,0,1,.42-.18A3.37,3.37,0,0,1,34.94,162.52Z"/><path class="cls-2" d="M37,167.07a1.39,1.39,0,0,1,.38,1.26,3.93,3.93,0,0,1,1,1.79,10.16,10.16,0,0,0,1.73-.92c.64-.5.82-1,.51-1.49a23.08,23.08,0,0,0-2.3-2.62c-.42-.44-.8-.8-1.14-1.1a2.41,2.41,0,0,1,0,1.52c-.23.61-.56.68-1,.19A4.6,4.6,0,0,1,35,163.07a1.33,1.33,0,0,0-.42.18,4,4,0,0,0,.26.93A7.4,7.4,0,0,0,37,167.07Z"/><path class="cls-2" d="M36.4,162.42a1.59,1.59,0,0,0-.75-.65c-.4-.14-.63.11-.71.75a3.37,3.37,0,0,0,0,.55,1.6,1.6,0,0,1,.39,0,.59.59,0,0,1,0-.59c.18-.22.39-.16.63.17a1.15,1.15,0,0,1,.3.73,8.38,8.38,0,0,1,.85.66,7.39,7.39,0,0,0-.35-.89C36.68,162.9,36.54,162.68,36.4,162.42Z"/><path class="cls-2" d="M36.19,163.67c-.2.24-.43.14-.69-.31a2.06,2.06,0,0,1-.16-.34,1.6,1.6,0,0,0-.39,0,4.6,4.6,0,0,0,1.25,2.63c.44.49.77.42,1-.19a2.41,2.41,0,0,0,0-1.52,8.38,8.38,0,0,0-.85-.66A.47.47,0,0,1,36.19,163.67Z"/><path class="cls-2" d="M35.23,166.38c.35.14.4-.13.14-.79s-.5-.85-.79-.88-.32.19-.17.7A1.53,1.53,0,0,0,35.23,166.38Z"/><path class="cls-2" d="M36.31,163.33a1.15,1.15,0,0,0-.3-.73c-.24-.33-.45-.39-.63-.17a.59.59,0,0,0,0,.59h.29A1.81,1.81,0,0,1,36.31,163.33Z"/><path class="cls-2" d="M36.19,163.67a.47.47,0,0,0,.12-.34,1.81,1.81,0,0,0-.68-.3h-.29a2.06,2.06,0,0,0,.16.34C35.76,163.81,36,163.91,36.19,163.67Z"/><path class="cls-2" d="M39.85,163.24l.62.5.21-.12q1.27-.65,1.8-.18.83.7-.42,1.32a2.41,2.41,0,0,1-.33.15,8.38,8.38,0,0,1,.57.66,6.82,6.82,0,0,0,2.5-1.64,36.51,36.51,0,0,1,2.85-2.33c1.52-1.18,2.48-1.93,2.86-2.26q.9-.75.06-2.82l-1-2q-.66-.54-3.12-3.06a6.31,6.31,0,0,1-1.67-2.71,5.59,5.59,0,0,1-.13-.64,4.2,4.2,0,0,1-.55-.86,1.17,1.17,0,0,1,.11-.64q-2.93.48-5.61,5.23t-2.88,7.68a5.44,5.44,0,0,0,.2,1.66,2.31,2.31,0,0,1,.64.14A12.24,12.24,0,0,1,39.85,163.24ZM44.06,162a1.53,1.53,0,0,1,1.24-1.08c.58-.08.68.22.29.9a1.87,1.87,0,0,1-1,.75C44,162.7,43.85,162.51,44.06,162ZM40.9,150.72q1.13-2.55,2.44-1.53c.31.26.39.51.26.73a2.7,2.7,0,0,1-.71.56,5.16,5.16,0,0,1-1.54.78Q40.59,151.49,40.9,150.72Zm-1.3,8.5c-.06-.69.46-1.15,1.55-1.38.53-.13.81.09.82.64a1,1,0,0,1-.18.62,1.72,1.72,0,0,1,0,.24c0,.56-.33,1-1,1.29s-1.21.19-1.29-.52a1.07,1.07,0,0,1,.18-.65A1.37,1.37,0,0,1,39.6,159.22Z"/><path class="cls-2" d="M36.4,162.42a4.42,4.42,0,0,1,.4.66v0a3.6,3.6,0,0,0,.48.61,14.81,14.81,0,0,0,2.34,1.79l.21.14a4.21,4.21,0,0,0,2.46-.07,8.38,8.38,0,0,0-.57-.66,1.47,1.47,0,0,1-1.59-.1c-.42-.35-.31-.7.33-1.07l-.62-.5a12.24,12.24,0,0,0-3.3-1.9,2.31,2.31,0,0,0-.64-.14,5.8,5.8,0,0,0,.46,1.17Z"/><path class="cls-2" d="M36.8,163.08a4.42,4.42,0,0,0-.4-.66c.14.26.28.48.41.68Z"/><path class="cls-2" d="M51.54,152.05h0s0-.09-.08-.14h0C51.49,152,51.51,152,51.54,152.05Z"/><path class="cls-2" d="M42.94,166.84a4.48,4.48,0,0,0,1-.42,4.23,4.23,0,0,1-1,.41Z"/><path class="cls-2" d="M42.07,166.86a9.25,9.25,0,0,1-2.23-1.22h0a7.84,7.84,0,0,0,2.28,1.25,1.85,1.85,0,0,0,.83,0h0A1.85,1.85,0,0,1,42.07,166.86Z"/><path class="cls-2" d="M51.54,152.05s0-.09-.08-.14l-.07.13Z"/><path class="cls-2" d="M51.5,157.13a5.29,5.29,0,0,1-1-2.08,4.08,4.08,0,0,1-.05-1.93,2.68,2.68,0,0,1,.12-.37c-.26-.1-.57-.23-.94-.4a10,10,0,0,1-3.83-2.9c-.47-.53-.84-1-1.12-1.32a5.59,5.59,0,0,0,.13.64,6.31,6.31,0,0,0,1.67,2.71q2.46,2.52,3.12,3.06l1,2q.84,2.07-.06,2.82c-.38.33-1.34,1.08-2.86,2.26a36.51,36.51,0,0,0-2.85,2.33,6.82,6.82,0,0,1-2.5,1.64c.16.21.32.42.45.63a1.41,1.41,0,0,1,.19.63,4.23,4.23,0,0,0,1-.41,12,12,0,0,0,1.85-1.48,29.71,29.71,0,0,1,4-2.85q2.34-1.43,2.91-1.86a3.71,3.71,0,0,0,1.08-1.35A6,6,0,0,1,51.5,157.13Z"/><path class="cls-2" d="M42.94,166.83a1.41,1.41,0,0,0-.19-.63c-.13-.21-.29-.42-.45-.63a4.21,4.21,0,0,1-2.46.07,9.25,9.25,0,0,0,2.23,1.22A1.85,1.85,0,0,0,42.94,166.83Z"/><path class="cls-2" d="M45.36,146.62a4.65,4.65,0,0,1,2.12.75,9.25,9.25,0,0,1,2.12,1.88,7,7,0,0,1,1.27-1.44c.54-.53,1-.67,1.37-.42a.61.61,0,0,1,.12.93c-.32.49-.68,1.13-1.09,1.92a1,1,0,0,1-.59.43c.26.39.52.8.78,1.24a2.3,2.3,0,0,1,.57-.5,4.7,4.7,0,0,0,1.37-1.21,4.79,4.79,0,0,1,2.46-2.4A1.79,1.79,0,0,0,57,146.45c.23-.8.52-1.28.88-1.45a6,6,0,0,1,2-.58,2.4,2.4,0,0,0,1.37-.88,2.85,2.85,0,0,1,.91-.82,1.65,1.65,0,0,1,1.1-.09,3.26,3.26,0,0,0,3.64-1.72,1.4,1.4,0,0,1,1.44-.48l1.79.28c.33,0,.36-.24.08-.79a5.5,5.5,0,0,0-1.45-1.81A9.79,9.79,0,0,0,62,135.47q-7.49-.06-11.64,3.16A38.88,38.88,0,0,0,45.15,145a8.08,8.08,0,0,0-.95,1.65A3.76,3.76,0,0,1,45.36,146.62Zm8.82-9a5.62,5.62,0,0,1,2.47-1,16.07,16.07,0,0,1,4.5-.58,12.17,12.17,0,0,1,4.28.81,8.46,8.46,0,0,1,2.74,1.53c.44.4.55.56.33.47l-1.73-.69a17.67,17.67,0,0,0-7.53-1.25,25.9,25.9,0,0,0-4,.72C54.36,137.89,54,137.89,54.18,137.67Zm.58,7.72c.35.36.22.86-.39,1.49s-1,.79-1.2.39-.08-1,.42-1.53S54.43,145.06,54.76,145.39Zm-2.93-5.75a2.37,2.37,0,0,1,1.24-.68q.74-.19.45.6s0,0,0,.05a1.07,1.07,0,0,1-.08.38c-.32.8-.79,1.12-1.41,1s-.79-.38-.38-.8C51.56,140,51.62,139.85,51.83,139.64Zm-3.58,6.43a1.38,1.38,0,0,1,.16-.78c.34-.69.77-1,1.3-1s.77.31.63.84c0,0,0,.07,0,.11a.9.9,0,0,1,0,.35c-.25,1.09-.72,1.59-1.41,1.52S48.09,146.64,48.25,146.07Z"/><path class="cls-2" d="M44.64,148.13a2.83,2.83,0,0,1,.19-1.52,3.11,3.11,0,0,1,.53,0,3.76,3.76,0,0,0-1.16,0,1.17,1.17,0,0,0-.11.64A4.2,4.2,0,0,0,44.64,148.13Z"/><path class="cls-2" d="M49.6,149.25h0a9.25,9.25,0,0,0-2.12-1.88A9.25,9.25,0,0,1,49.6,149.25Z"/><path class="cls-2" d="M50.68,150.67c.26.39.52.8.78,1.24h0c-.26-.44-.52-.85-.78-1.24Z"/><path class="cls-2" d="M46,146.72a5.61,5.61,0,0,1,1.51.65A4.33,4.33,0,0,0,46,146.72Z"/><path class="cls-2" d="M49.59,152.35c.37.17.68.3.94.4a1,1,0,0,1,.79-.71h.07l.07-.13c-.26-.44-.52-.85-.78-1.24a.77.77,0,0,1-.64-.21q-.75-.57-.45-1.2h0a9.25,9.25,0,0,0-2.12-1.88,5.61,5.61,0,0,0-1.51-.65,4.31,4.31,0,0,0-.61-.1,3.11,3.11,0,0,0-.53,0,2.83,2.83,0,0,0-.19,1.52c.28.35.65.79,1.12,1.32A10,10,0,0,0,49.59,152.35Zm-2.26-3.52c.27-.26.63-.21,1.07.15a.81.81,0,0,1,.08,1.16c-.29.46-.63.43-1-.11S47.07,149.1,47.33,148.83Z"/><path class="cls-2" d="M54,157.82a2.07,2.07,0,0,1-.18,1.06l.07,0q1.35.59,5.43-1.16a28.26,28.26,0,0,0,5.45-3,14.83,14.83,0,0,0,3.84-4.47,9.26,9.26,0,0,0,1.64-3.71c0-.66-.21-.91-.65-.74-.12.07-.44.32-1,.75a3.47,3.47,0,0,0-.54.53,1.26,1.26,0,0,1-.63.43,1.65,1.65,0,0,1-1-.08,2,2,0,0,0-1.13-.08,2.87,2.87,0,0,0-.94.59,3,3,0,0,1-1.07.52,7.49,7.49,0,0,1-1.09.15,1.44,1.44,0,0,0-.81.26A4,4,0,0,1,59.19,150a6.57,6.57,0,0,1-.8-.08,1.06,1.06,0,0,0-.76.29,3.07,3.07,0,0,1-2.14.84,1.89,1.89,0,0,0-1.67.85c-.16.24-.51.34-1,.29l-1.24-.14c.12.22.25.43.37.66A15.81,15.81,0,0,1,54,157.82Zm3.53-6.34a4.86,4.86,0,0,1,1.8-.72,4.57,4.57,0,0,0,2.87-1,1.88,1.88,0,0,1,1.14-.52,6.87,6.87,0,0,0,1.3-.08,6.65,6.65,0,0,0,1.2-.52,3.12,3.12,0,0,1,1.1-.42,5.45,5.45,0,0,0,1.64-.61c.47-.28.74-.31.83-.09s-.15.41-.64.76a2.43,2.43,0,0,1-1.57.54,5.67,5.67,0,0,0-2,.64,5.08,5.08,0,0,1-1.84.62,2.41,2.41,0,0,0-1.4.58,3.91,3.91,0,0,1-1.44.75c-.18,0-.76.11-1.76.21a6.88,6.88,0,0,0-1.64.28C56.54,152,56.68,151.91,57.48,151.48Z"/><path class="cls-2" d="M51.91,152.71c-.12-.23-.25-.44-.37-.66h0C51.66,152.27,51.79,152.48,51.91,152.71Z"/><path class="cls-2" d="M51.91,152.71a16.05,16.05,0,0,1,2,5.11A15.81,15.81,0,0,0,51.91,152.71Z"/><path class="cls-2" d="M51.91,152.71c-.12-.23-.25-.44-.37-.66h-.15a.35.35,0,0,0,0,.33c.4.61.11.73-.85.38a2.68,2.68,0,0,0-.12.37,4.08,4.08,0,0,0,.05,1.93,5.29,5.29,0,0,0,1,2.08,6,6,0,0,0,2.27,1.75,2.07,2.07,0,0,0,.18-1.06A16.05,16.05,0,0,0,51.91,152.71Z"/><path class="cls-2" d="M50.53,152.75c1,.35,1.25.23.85-.38a.35.35,0,0,1,0-.33h-.07A1,1,0,0,0,50.53,152.75Z"/><path class="cls-2" d="M41.35,151.26a5.16,5.16,0,0,0,1.54-.78,2.7,2.7,0,0,0,.71-.56c.13-.22,0-.47-.26-.73q-1.32-1-2.44,1.53Q40.58,151.48,41.35,151.26Z"/><path class="cls-2" d="M42.48,163.44q-.52-.47-1.8.18l-.21.12a13.16,13.16,0,0,1,1.26,1.17,2.41,2.41,0,0,0,.33-.15Q43.31,164.15,42.48,163.44Z"/><path class="cls-2" d="M40.14,164.81a1.47,1.47,0,0,0,1.59.1,13.16,13.16,0,0,0-1.26-1.17C39.83,164.11,39.72,164.46,40.14,164.81Z"/><path class="cls-2" d="M44.55,162.53a1.87,1.87,0,0,0,1-.75c.39-.68.29-1-.29-.9A1.53,1.53,0,0,0,44.06,162C43.85,162.51,44,162.7,44.55,162.53Z"/><path class="cls-2" d="M52,141c.62.14,1.09-.18,1.41-1a1.07,1.07,0,0,0,.08-.38q-.37,1.09-1.32.87a.89.89,0,0,1-.55-.31C51.22,140.59,51.34,140.86,52,141Z"/><path class="cls-2" d="M53,139.35c.34-.09.51,0,.5.26,0,0,0,0,0-.05q.28-.8-.45-.6a2.37,2.37,0,0,0-1.24.68c-.21.21-.27.38-.2.53l0,0A2.8,2.8,0,0,1,53,139.35Z"/><path class="cls-2" d="M53.5,139.61c0-.26-.16-.35-.5-.26a2.8,2.8,0,0,0-1.34.79l0,0a.89.89,0,0,0,.55.31Q53.13,140.7,53.5,139.61Z"/><path class="cls-2" d="M51.27,150.24c.41-.79.77-1.43,1.09-1.92a.61.61,0,0,0-.12-.93c-.38-.25-.83-.11-1.37.42a7,7,0,0,0-1.27,1.44,17.52,17.52,0,0,1,1.08,1.42A1,1,0,0,0,51.27,150.24Z"/><path class="cls-2" d="M50.68,150.67h0a17.52,17.52,0,0,0-1.08-1.42h0A17.52,17.52,0,0,1,50.68,150.67Z"/><path class="cls-2" d="M49.59,149.26q-.3.63.45,1.2a.77.77,0,0,0,.64.21,17.52,17.52,0,0,0-1.08-1.42Z"/><path class="cls-2" d="M53.17,147.27q.26.6,1.2-.39c.61-.63.74-1.13.39-1.49s-.72-.22-1.17.35S53,146.82,53.17,147.27Z"/><path class="cls-2" d="M48.48,150.14A.81.81,0,0,0,48.4,149c-.44-.36-.8-.41-1.07-.15s-.23.66.12,1.2S48.19,150.6,48.48,150.14Z"/><path class="cls-2" d="M48.85,147.09c.69.07,1.16-.43,1.41-1.52a.9.9,0,0,0,0-.35c-.26,1-.72,1.47-1.38,1.4-.42-.05-.62-.25-.67-.55C48.09,146.64,48.28,147,48.85,147.09Z"/><path class="cls-2" d="M49.64,144.74q.61,0,.66.48s0-.07,0-.11q.21-.8-.63-.84c-.53,0-1,.33-1.3,1a1.38,1.38,0,0,0-.16.78,2.08,2.08,0,0,1,.12-.35C48.66,145,49.09,144.71,49.64,144.74Z"/><path class="cls-2" d="M48.92,146.62c.66.07,1.12-.4,1.38-1.4q0-.45-.66-.48c-.55,0-1,.29-1.27,1a2.08,2.08,0,0,0-.12.35C48.3,146.37,48.5,146.57,48.92,146.62Z"/><path class="cls-2" d="M40.78,160.63c.72-.31,1.06-.73,1-1.29a1.72,1.72,0,0,0,0-.24,1.83,1.83,0,0,1-.86.66c-.69.3-1.1.18-1.26-.3a1.07,1.07,0,0,0-.18.65C39.57,160.82,40,161,40.78,160.63Z"/><path class="cls-2" d="M41,158.7c.45-.1.7,0,.79.4a1,1,0,0,0,.18-.62c0-.55-.29-.77-.82-.64-1.09.23-1.61.69-1.55,1.38a1.37,1.37,0,0,0,.07.24A2.09,2.09,0,0,1,41,158.7Z"/><path class="cls-2" d="M40.93,159.76a1.83,1.83,0,0,0,.86-.66c-.09-.36-.34-.5-.79-.4a2.09,2.09,0,0,0-1.33.76C39.83,159.94,40.24,160.06,40.93,159.76Z"/><path class="cls-2" d="M55.28,137.65a25.9,25.9,0,0,1,4-.72,17.67,17.67,0,0,1,7.53,1.25l1.73.69c.22.09.11-.07-.33-.47a8.46,8.46,0,0,0-2.74-1.53,12.17,12.17,0,0,0-4.28-.81,16.07,16.07,0,0,0-4.5.58,5.62,5.62,0,0,0-2.47,1C54,137.89,54.36,137.89,55.28,137.65Z"/><path class="cls-2" d="M57.07,151.87a6.88,6.88,0,0,1,1.64-.28c1-.1,1.58-.17,1.76-.21a3.91,3.91,0,0,0,1.44-.75,2.41,2.41,0,0,1,1.4-.58,5.08,5.08,0,0,0,1.84-.62,5.67,5.67,0,0,1,2-.64,2.43,2.43,0,0,0,1.57-.54c.49-.35.71-.61.64-.76s-.36-.19-.83.09a5.45,5.45,0,0,1-1.64.61,3.12,3.12,0,0,0-1.1.42,6.65,6.65,0,0,1-1.2.52,6.87,6.87,0,0,1-1.3.08,1.88,1.88,0,0,0-1.14.52,4.57,4.57,0,0,1-2.87,1,4.86,4.86,0,0,0-1.8.72C56.68,151.91,56.54,152,57.07,151.87Z"/><path class="cls-2" d="M38.54,171.59a5.86,5.86,0,0,0-.12-1.14h0A6.73,6.73,0,0,1,38.54,171.59Z"/><path class="cls-2" d="M30.5,183.65a41,41,0,0,1,1-5c.6-2.44.73-4,.4-4.6-.55-.86-2.08-.3-2.68-1.83l-.25.35a24.83,24.83,0,0,0-2.39,15.07q2.93,3.5,6.11,6.75A27.83,27.83,0,0,1,30.5,183.65Zm-2.07,1.72a23.4,23.4,0,0,1,.16,3.51c-.06.65-.35-.08-.89-2.18q-2-8,2.58-12.92Q28.2,182.09,28.43,185.37Z"/><path class="cls-2" d="M37.34,168.8c0-.15,0-.31.06-.47a4.32,4.32,0,0,0-1.64-1C35.84,167.56,36.16,168.07,37.34,168.8Z"/><path class="cls-2" d="M38.33,170.13l.08.32h0c0-.11,0-.22-.06-.33Z"/><path class="cls-2" d="M37.94,169.16a4.19,4.19,0,0,1,.39,1h0a3.93,3.93,0,0,0-1-1.79c0,.16,0,.32-.06.47C37.52,168.92,37.71,169,37.94,169.16Z"/><path class="cls-2" d="M35.22,196.94l.69.65a30.16,30.16,0,0,1-3.2-13A32.23,32.23,0,0,0,35.22,196.94Z"/><path class="cls-2" d="M33.62,167l0-.09a1.63,1.63,0,0,1-.05-.33,2,2,0,0,0-.8.33l-3.55,5.33L33,166.89Z"/><path class="cls-2" d="M33.62,167l2.09.29,0,0c-.06-.19,0-.27-.06-.23,0-.28-1.15-.69-2.16-.5a1.63,1.63,0,0,0,.05.33Z"/><path class="cls-2" d="M31.87,174.05c.33.63.2,2.16-.4,4.6a41,41,0,0,0-1,5,27.83,27.83,0,0,0,2.16,10.74c.84.86,1.69,1.71,2.56,2.55a32.23,32.23,0,0,1-2.51-12.36,16.62,16.62,0,0,1,2.91-10l2.92-3a6.73,6.73,0,0,0-.13-1.14,1.74,1.74,0,0,1-.83.05.52.52,0,0,1-.15-.07,1.3,1.3,0,0,1-.75,0A4.74,4.74,0,0,1,33.62,167l-.64-.09-3.79,5.33h0C29.79,173.75,31.32,173.19,31.87,174.05Z"/><path class="cls-2" d="M37.34,168.8c-1.18-.73-1.5-1.24-1.58-1.51l0,0L33.62,167a4.74,4.74,0,0,0,3.06,3.48,1.3,1.3,0,0,0,.75,0C37,170.18,37.2,169.52,37.34,168.8Z"/><path class="cls-2" d="M37.43,170.43a.52.52,0,0,0,.15.07,1.74,1.74,0,0,0,.83-.05l-.08-.32A5.58,5.58,0,0,1,37.43,170.43Z"/><path class="cls-2" d="M37.94,169.16c-.23-.13-.42-.24-.6-.36-.14.72-.35,1.38.09,1.63a5.58,5.58,0,0,0,.9-.3A4.19,4.19,0,0,0,37.94,169.16Z"/><path class="cls-2" d="M27.7,186.7c.54,2.1.83,2.83.89,2.18a23.4,23.4,0,0,0-.16-3.51q-.22-3.28,1.85-11.59Q25.66,178.75,27.7,186.7Z"/><path class="cls-3" d="M114.38,0A113.83,113.83,0,0,0,47.1,21.88c15-2.8,46.54-2.47,79.9,36.18,39.89,46.2,57.65,14.44,93.49,13.56A114.41,114.41,0,0,0,114.38,0Z"/></g></g></svg>